<svg xmlns="http://www.w3.org/2000/svg" version="1.1" xmlns:xlink="http://www.w3.org/1999/xlink" xmlns:svgjs="http://svgjs.dev/svgjs" width="1000" height="1000" viewBox="0 0 1000 1000"><rect width="1000" height="1000" fill="#ffffff"></rect><g transform="matrix(0.7,0,0,0.7,150.0000000000001,106.25)"><svg viewBox="0 0 320 360" data-background-color="#ffffff" preserveAspectRatio="xMidYMid meet" height="1125" width="1000" xmlns="http://www.w3.org/2000/svg" xmlns:xlink="http://www.w3.org/1999/xlink"><g id="tight-bounds" transform="matrix(1,0,0,1,0,0)"><svg viewBox="0 0 320 360" height="360" width="320"><g><svg></svg></g><g><svg viewBox="0 0 320 360" height="360" width="320"><g><path xmlns="http://www.w3.org/2000/svg" d="M20.961 227.22l3.726 4.658-1.863-6.056c-0.466-2.795-3.726 0.466-1.863 1.398M25.153 224.425c1.397 2.329 2.795 4.658 2.795 6.987 0 3.261 2.795 4.658 5.123 5.589-3.261-3.726-5.124-13.974-7.918-12.576M204.017 26.929c7.918 0 15.371-0.932 23.756 0.931 20.495 5.124 37.729 15.371 49.374 29.811l32.606 52.169c1.397 13.042 4.192 27.482 3.726 43.319 3.261 0 2.795-4.658 6.521-5.59-3.726 9.316-5.59 20.961-6.521 34.469-2.329-7.453 0-18.632 0.466-24.687-3.261 5.124-5.124 1.397-5.124-0.932 0.466-3.726-1.397-3.261-2.795-4.658-5.124-4.658-8.384-9.782-12.11-17.7 2.329-6.055 2.795-14.905-4.658-19.563-2.329-1.397-5.124-3.726-6.521-7.453-1.863-5.124-5.124-11.179-4.193-19.097 0.466-2.329-6.987 5.124-11.179 1.863-18.166-12.576-36.332-27.016-58.224-39.127-11.645 0-20.029-4.192-24.221-9.316-3.726-4.658-0.932-10.713 4.658-11.179 3.261 0 6.987-0.932 9.782 0.932 0.466-1.863 2.329-4.192 4.657-4.192M157.904 16.215l0.932 0.466c4.658 0.932 6.987 7.453 12.11 5.124 0 3.261 0.466 6.521-0.466 8.85-1.397 3.726-5.59 3.726-8.85 3.726-31.208-1.863-49.374 11.179-68.471 22.358-5.124 3.261-10.713 5.59-14.906 9.782-20.029 18.632-41.921 35.866-47.045 70.335l-4.192 38.195c-0.466 4.192-5.124 8.384-4.192 13.508l3.26 22.824c-3.261-3.261-5.124 0.932-4.192 2.795 0.466 1.397 2.329 6.055 5.124 1.863 3.726 6.987 7.453 20.495 12.576 26.55 15.837 18.632 36.332 35.4 53.101 52.169 4.192-0.932 7.453-0.932 8.384-3.727 1.397 2.795-1.397 5.59-3.726 6.056 7.453 4.658 15.837 8.85 27.016 9.781 14.44 0.932 27.948 3.261 40.524 6.522 6.521-1.863 13.042-2.795 20.029-3.261 2.329 0 3.726-3.726 6.521-4.658l0.466-4.658c2.795 4.192 2.329-1.397 0.466-4.192 3.261 2.795 4.192 5.124 5.589 6.987 0-1.397 3.726-6.521 3.727-0.466l0.931-6.055c1.397-0.932 1.863 5.124 3.261 0.931 1.397-4.192 4.192-0.932 6.987-2.329-0.932 1.863-0.466 5.59 2.794 3.261l3.727-3.261c2.329 5.59 6.055 3.261 7.918 2.329 20.495-13.042 40.99-28.413 60.553-43.784l-0.466 6.055 2.329-7.453c2.329 2.329 4.192 0.466 5.124-0.931 2.795-4.658 6.521-9.316 12.577-13.508-7.453 20.029-16.303 35.866-27.482 48.908l-4.658 5.59c0 3.261-0.932 7.453-4.658 7.918-1.863 0.466-5.59-0.932-8.384 1.863-1.397 1.863 3.261 5.59-0.466 2.795-3.261-2.329-6.521 0-10.248 0.932-2.795 0.932 1.863 3.726 2.795 5.589 0.932 1.863 1.863 3.726 1.398 6.056l-5.124-5.59c-6.055 3.261-9.782 9.316-14.906 13.974-2.329 1.863-1.397 5.124-1.397 7.918-3.261 0-6.987-0.932-8.85 0.932-1.397 1.863-0.932 4.658-0.932 7.453-4.658-0.466-5.124-7.453-9.315-6.056-4.192 0.932-8.85 1.397-12.577 3.727 2.795 5.59-4.658 2.329-3.726 3.26-6.987-4.192-13.042-7.453-20.495-4.658-15.837-5.124-35.4-2.795-49.84-0.931 0-2.329 0.466-4.658-0.466-5.124-0.932 2.329-3.726 1.397-3.26 1.397-8.85-6.055-17.7-9.782-27.016-14.905-8.384 0.932-16.303-3.261-18.632-5.59-6.521-6.055-13.974-2.795-20.029-4.192-13.042-3.261-17.7-16.769-19.098-26.084-0.932-4.658-4.658-6.521-6.055-6.056-6.055-19.563-15.371-37.263-22.824-55.429-1.863-4.658-1.397-9.316-1.397-14.44 2.329 0.932 4.658 0.466 4.192-2.794-2.329-15.371-7.918-27.016-13.974-38.195 3.261-15.837 3.726-34.469 11.179-48.443 6.521-12.576 18.632-19.098 27.016-29.811 2.795-3.726 2.795-8.85 5.59-12.11 9.316-9.316 18.632-19.098 28.879-27.482 4.658-3.726 10.247 0 17.234-1.397 2.329-8.384 11.645-15.837 20.495-13.508 3.726 0.932 11.179-8.85 13.508-9.782 3.726-1.397 1.863 3.726 1.863 6.987 8.85-6.987 20.961-10.713 32.14-14.906" fill="#4d7e3e" fill-rule="nonzero" stroke="none" stroke-width="1" stroke-linecap="butt" stroke-linejoin="miter" stroke-miterlimit="10" stroke-dasharray="" stroke-dashoffset="0" font-family="none" font-weight="none" font-size="none" text-anchor="none" style="mix-blend-mode: normal" data-fill-palette-color="tertiary"></path></g><g transform="matrix(1,0,0,1,112.84204383732956,90)"><svg viewBox="0 0 94.3159123253409 180" height="180" width="94.3159123253409"><g><svg viewBox="0 0 94.3159123253409 180" height="180" width="94.3159123253409"><g><svg viewBox="0 0 164.19510259365995 313.36301307152695" height="180" width="94.3159123253409"><g transform="matrix(1,0,0,1,0,99.36311520927816)"><svg viewBox="0 0 164.19510259365995 213.9998978622488" height="213.9998978622488" width="164.19510259365995"><g><svg viewBox="0 0 164.19510259365995 213.9998978622488" height="213.9998978622488" width="164.19510259365995"><g><svg viewBox="0 0 164.19510259365995 178.88760000000002" height="178.88760000000002" width="164.19510259365995"><g transform="matrix(1,0,0,1,0,0)"><svg width="164.19510259365995" viewBox="1.75 -34.25 31.849998474121094 34.70000076293945" height="178.88760000000002" data-palette-color="#4d7e3e"><path d="M19.15 0.45L19.15 0.45Q13.8 0.45 9.88-1.65 5.95-3.75 3.85-7.7 1.75-11.65 1.75-17.2L1.75-17.2Q1.75-21.3 3.03-24.48 4.3-27.65 6.68-29.83 9.05-32 12.3-33.13 15.55-34.25 19.5-34.25L19.5-34.25Q22.9-34.25 26-33.5 29.1-32.75 31.3-31.7L31.3-31.7Q31-30 30.88-28.03 30.75-26.05 30.75-23.95L30.75-23.95Q29.8-23.55 28.63-23.45 27.45-23.35 26.4-23.35L26.4-23.35Q26.25-26.2 25.38-27.83 24.5-29.45 22.98-30.13 21.45-30.8 19.45-30.8L19.45-30.8Q16.35-30.8 14.4-29.03 12.45-27.25 11.58-24.4 10.7-21.55 10.7-18.4L10.7-18.4Q10.7-14 11.8-10.55 12.9-7.1 14.93-5.13 16.95-3.15 19.85-3.15L19.85-3.15Q20.75-3.15 21.35-3.23 21.95-3.3 22.45-3.5L22.45-3.5Q23.2-3.8 23.65-4.5 24.1-5.2 24.1-7.15L24.1-7.15 24.1-9.05Q24.1-10.75 23.83-11.6 23.55-12.45 22.73-12.75 21.9-13.05 20.35-13.1L20.35-13.1Q20.15-13.8 20.08-14.68 20-15.55 20-16.55L20-16.55Q21.35-16.5 23.23-16.45 25.1-16.4 26.75-16.4L26.75-16.4Q28.3-16.4 30.28-16.43 32.25-16.45 33.6-16.5L33.6-16.5Q33.6-15.7 33.55-14.8 33.5-13.9 33.3-13.1L33.3-13.1Q32.4-13.05 31.95-12.78 31.5-12.5 31.4-11.78 31.3-11.05 31.3-9.65L31.3-9.65 31.3-8.2Q31.3-6.4 31.45-5.48 31.6-4.55 32.1-3.4L32.1-3.4Q29.8-1.75 26.45-0.65 23.1 0.45 19.15 0.45Z" opacity="1" transform="matrix(1,0,0,1,0,0)" fill="#4d7e3e" class="undefined-text-0" data-fill-palette-color="primary" id="text-0"></path></svg></g></svg></g><g transform="matrix(1,0,0,1,0,204.99159414240003)"><svg viewBox="0 0 164.19510259365995 9.008303719848758" height="9.008303719848758" width="164.19510259365995"><g transform="matrix(1,0,0,1,0,0)"><svg width="164.19510259365995" viewBox="3.9000000953674316 -37 882.0099487304688 48" height="9.008303719848758" data-palette-color="#31c48d"><path d="M20 0L5.1 0Q4.6 0 4.25-0.35 3.9-0.7 3.9-1.2L3.9-1.2 3.9-33.75Q3.9-34.3 4.25-34.65 4.6-35 5.1-35L5.1-35 19.6-35Q23.65-35 26.2-33.77 28.75-32.55 29.98-30.4 31.2-28.25 31.2-25.4L31.2-25.4Q31.2-23.5 30.53-22.08 29.85-20.65 28.88-19.75 27.9-18.85 26.95-18.35L26.95-18.35Q28.9-17.45 30.4-15.35 31.9-13.25 31.9-10.35L31.9-10.35Q31.9-7.35 30.55-5 29.2-2.65 26.55-1.33 23.9 0 20 0L20 0ZM10.85-15.45L10.85-5.3 19.2-5.3Q21.9-5.3 23.3-6.78 24.7-8.25 24.7-10.35L24.7-10.35Q24.7-12.55 23.28-14 21.85-15.45 19.2-15.45L19.2-15.45 10.85-15.45ZM10.85-29.75L10.85-20.65 18.7-20.65Q21.35-20.65 22.68-21.93 24-23.2 24-25.25L24-25.25Q24-27.35 22.68-28.55 21.35-29.75 18.7-29.75L18.7-29.75 10.85-29.75ZM47.25 0.5L47.25 0.5Q44.2 0.5 41.97-0.88 39.75-2.25 38.55-4.78 37.35-7.3 37.35-10.75L37.35-10.75 37.35-24.8Q37.35-25.3 37.7-25.65 38.05-26 38.55-26L38.55-26 42.95-26Q43.5-26 43.82-25.65 44.15-25.3 44.15-24.8L44.15-24.8 44.15-11.05Q44.15-4.85 49.6-4.85L49.6-4.85Q52.2-4.85 53.72-6.5 55.25-8.15 55.25-11.05L55.25-11.05 55.25-24.8Q55.25-25.3 55.6-25.65 55.95-26 56.45-26L56.45-26 60.85-26Q61.35-26 61.7-25.65 62.05-25.3 62.05-24.8L62.05-24.8 62.05-1.2Q62.05-0.7 61.7-0.35 61.35 0 60.85 0L60.85 0 56.8 0Q56.25 0 55.92-0.35 55.6-0.7 55.6-1.2L55.6-1.2 55.6-3.25Q54.25-1.5 52.25-0.5 50.25 0.5 47.25 0.5ZM74 0L69.85 0Q69.35 0 69-0.35 68.65-0.7 68.65-1.2L68.65-1.2 68.65-24.8Q68.65-25.3 69-25.65 69.35-26 69.85-26L69.85-26 74-26Q74.55-26 74.87-25.65 75.2-25.3 75.2-24.8L75.2-24.8 75.2-1.2Q75.2-0.7 74.87-0.35 74.55 0 74 0L74 0ZM74.2-30.3L69.65-30.3Q69.15-30.3 68.8-30.65 68.45-31 68.45-31.5L68.45-31.5 68.45-35.1Q68.45-35.6 68.8-35.95 69.15-36.3 69.65-36.3L69.65-36.3 74.2-36.3Q74.75-36.3 75.1-35.95 75.45-35.6 75.45-35.1L75.45-35.1 75.45-31.5Q75.45-31 75.1-30.65 74.75-30.3 74.2-30.3L74.2-30.3ZM87.24 0L83.09 0Q82.59 0 82.24-0.35 81.89-0.7 81.89-1.2L81.89-1.2 81.89-34.3Q81.89-34.8 82.24-35.15 82.59-35.5 83.09-35.5L83.09-35.5 87.24-35.5Q87.74-35.5 88.09-35.15 88.44-34.8 88.44-34.3L88.44-34.3 88.44-1.2Q88.44-0.7 88.09-0.35 87.74 0 87.24 0L87.24 0ZM104.74 0.5L104.74 0.5Q102.14 0.5 100.17-0.38 98.19-1.25 96.89-2.85 95.59-4.45 94.89-6.63 94.19-8.8 94.09-11.4L94.09-11.4Q94.04-12.3 94.04-13.03 94.04-13.75 94.09-14.65L94.09-14.65Q94.19-17.15 94.87-19.3 95.54-21.45 96.87-23.08 98.19-24.7 100.17-25.6 102.14-26.5 104.74-26.5L104.74-26.5Q107.44-26.5 109.32-25.58 111.19-24.65 112.44-23.2L112.44-23.2 112.44-34.3Q112.44-34.8 112.77-35.15 113.09-35.5 113.64-35.5L113.64-35.5 117.89-35.5Q118.39-35.5 118.74-35.15 119.09-34.8 119.09-34.3L119.09-34.3 119.09-1.2Q119.09-0.7 118.74-0.35 118.39 0 117.89 0L117.89 0 113.94 0Q113.39 0 113.07-0.35 112.74-0.7 112.74-1.2L112.74-1.2 112.74-3.05Q111.49-1.5 109.57-0.5 107.64 0.5 104.74 0.5ZM106.59-4.85L106.59-4.85Q108.69-4.85 109.94-5.8 111.19-6.75 111.79-8.22 112.39-9.7 112.44-11.25L112.44-11.25Q112.49-12.15 112.49-13.18 112.49-14.2 112.44-15.1L112.44-15.1Q112.39-16.6 111.74-17.98 111.09-19.35 109.84-20.25 108.59-21.15 106.59-21.15L106.59-21.15Q104.49-21.15 103.27-20.23 102.04-19.3 101.49-17.8 100.94-16.3 100.84-14.5L100.84-14.5Q100.79-13 100.84-11.5L100.84-11.5Q100.94-9.7 101.49-8.2 102.04-6.7 103.27-5.78 104.49-4.85 106.59-4.85ZM131.09 0L126.94 0Q126.44 0 126.09-0.35 125.74-0.7 125.74-1.2L125.74-1.2 125.74-24.8Q125.74-25.3 126.09-25.65 126.44-26 126.94-26L126.94-26 131.09-26Q131.64-26 131.96-25.65 132.29-25.3 132.29-24.8L132.29-24.8 132.29-1.2Q132.29-0.7 131.96-0.35 131.64 0 131.09 0L131.09 0ZM131.29-30.3L126.74-30.3Q126.24-30.3 125.89-30.65 125.54-31 125.54-31.5L125.54-31.5 125.54-35.1Q125.54-35.6 125.89-35.95 126.24-36.3 126.74-36.3L126.74-36.3 131.29-36.3Q131.84-36.3 132.19-35.95 132.54-35.6 132.54-35.1L132.54-35.1 132.54-31.5Q132.54-31 132.19-30.65 131.84-30.3 131.29-30.3L131.29-30.3ZM144.54 0L140.14 0Q139.64 0 139.29-0.35 138.94-0.7 138.94-1.2L138.94-1.2 138.94-24.8Q138.94-25.3 139.29-25.65 139.64-26 140.14-26L140.14-26 144.24-26Q144.74-26 145.09-25.65 145.44-25.3 145.44-24.8L145.44-24.8 145.44-22.75Q146.74-24.35 148.76-25.43 150.79-26.5 153.79-26.5L153.79-26.5Q156.84-26.5 159.09-25.13 161.34-23.75 162.56-21.25 163.79-18.75 163.79-15.25L163.79-15.25 163.79-1.2Q163.79-0.7 163.44-0.35 163.09 0 162.59 0L162.59 0 158.19 0Q157.69 0 157.34-0.35 156.99-0.7 156.99-1.2L156.99-1.2 156.99-14.95Q156.99-17.85 155.56-19.5 154.14-21.15 151.44-21.15L151.44-21.15Q148.84-21.15 147.29-19.5 145.74-17.85 145.74-14.95L145.74-14.95 145.74-1.2Q145.74-0.7 145.39-0.35 145.04 0 144.54 0L144.54 0ZM181.88 11L181.88 11Q178.23 11 175.88 10.05 173.53 9.1 172.18 7.75 170.83 6.4 170.26 5.08 169.68 3.75 169.63 3L169.63 3Q169.58 2.5 169.96 2.13 170.33 1.75 170.83 1.75L170.83 1.75 175.18 1.75Q175.68 1.75 175.98 1.98 176.28 2.2 176.48 2.8L176.48 2.8Q176.78 3.45 177.28 4.2 177.78 4.95 178.81 5.48 179.83 6 181.63 6L181.63 6Q183.53 6 184.83 5.45 186.13 4.9 186.81 3.6 187.48 2.3 187.48 0L187.48 0 187.48-3.4Q186.28-1.95 184.41-1.05 182.53-0.15 179.78-0.15L179.78-0.15Q177.13-0.15 175.16-1.03 173.18-1.9 171.88-3.48 170.58-5.05 169.91-7.2 169.23-9.35 169.13-11.95L169.13-11.95Q169.08-13.3 169.13-14.65L169.13-14.65Q169.23-17.15 169.91-19.3 170.58-21.45 171.88-23.08 173.18-24.7 175.16-25.6 177.13-26.5 179.78-26.5L179.78-26.5Q182.63-26.5 184.58-25.43 186.53-24.35 187.78-22.75L187.78-22.75 187.78-24.75Q187.78-25.3 188.13-25.65 188.48-26 188.98-26L188.98-26 193.03-26Q193.53-26 193.88-25.65 194.23-25.3 194.23-24.75L194.23-24.75 194.28-0.65Q194.28 2.95 192.93 5.55 191.58 8.15 188.86 9.58 186.13 11 181.88 11ZM181.63-5.45L181.63-5.45Q183.68-5.45 184.93-6.35 186.18-7.25 186.78-8.7 187.38-10.15 187.48-11.65L187.48-11.65Q187.53-12.3 187.53-13.3 187.53-14.3 187.48-14.9L187.48-14.9Q187.38-16.45 186.78-17.88 186.18-19.3 184.93-20.23 183.68-21.15 181.63-21.15L181.63-21.15Q179.58-21.15 178.33-20.23 177.08-19.3 176.56-17.8 176.03-16.3 175.93-14.5L175.93-14.5Q175.83-13.3 175.93-12.05L175.93-12.05Q176.03-10.3 176.56-8.78 177.08-7.25 178.33-6.35 179.58-5.45 181.63-5.45ZM223.58 0.5L223.58 0.5Q218.03 0.5 214.78-2.7 211.53-5.9 211.28-11.8L211.28-11.8Q211.23-12.3 211.23-13.08 211.23-13.85 211.28-14.3L211.28-14.3Q211.48-18.1 213-20.83 214.53-23.55 217.23-25.03 219.93-26.5 223.58-26.5L223.58-26.5Q227.63-26.5 230.38-24.83 233.13-23.15 234.53-20.18 235.93-17.2 235.93-13.3L235.93-13.3 235.93-12.25Q235.93-11.75 235.58-11.4 235.23-11.05 234.68-11.05L234.68-11.05 218.08-11.05Q218.08-11.05 218.08-10.9 218.08-10.75 218.08-10.65L218.08-10.65Q218.13-8.9 218.75-7.43 219.38-5.95 220.6-5.05 221.83-4.15 223.53-4.15L223.53-4.15Q224.93-4.15 225.88-4.58 226.83-5 227.43-5.55 228.03-6.1 228.28-6.45L228.28-6.45Q228.73-7.05 229-7.18 229.28-7.3 229.83-7.3L229.83-7.3 234.13-7.3Q234.63-7.3 234.95-7 235.28-6.7 235.23-6.25L235.23-6.25Q235.18-5.45 234.4-4.3 233.63-3.15 232.18-2.05 230.73-0.95 228.55-0.23 226.38 0.5 223.58 0.5ZM218.08-15.4L218.08-15.25 229.13-15.25 229.13-15.4Q229.13-17.35 228.48-18.82 227.83-20.3 226.58-21.13 225.33-21.95 223.58-21.95L223.58-21.95Q221.83-21.95 220.58-21.13 219.33-20.3 218.7-18.82 218.08-17.35 218.08-15.4L218.08-15.4ZM249.33 0L245.23 0Q244.73 0 244.38-0.35 244.03-0.7 244.03-1.2L244.03-1.2 244.03-20.7 239.98-20.7Q239.48-20.7 239.13-21.05 238.78-21.4 238.78-21.95L238.78-21.95 238.78-24.8Q238.78-25.3 239.13-25.65 239.48-26 239.98-26L239.98-26 244.03-26 244.03-28.05Q244.03-31.05 245.13-33.02 246.23-35 248.38-36 250.53-37 253.83-37L253.83-37 257.23-37Q257.78-37 258.1-36.65 258.43-36.3 258.43-35.8L258.43-35.8 258.43-32.95Q258.43-32.4 258.1-32.05 257.78-31.7 257.23-31.7L257.23-31.7 254.03-31.7Q252.03-31.7 251.28-30.7 250.53-29.7 250.53-27.8L250.53-27.8 250.53-26 256.73-26Q257.28-26 257.6-25.65 257.93-25.3 257.93-24.8L257.93-24.8 257.93-21.95Q257.93-21.4 257.6-21.05 257.28-20.7 256.73-20.7L256.73-20.7 250.53-20.7 250.53-1.2Q250.53-0.7 250.18-0.35 249.83 0 249.33 0L249.33 0ZM270.02 0L265.92 0Q265.42 0 265.07-0.35 264.72-0.7 264.72-1.2L264.72-1.2 264.72-20.7 260.67-20.7Q260.17-20.7 259.82-21.05 259.47-21.4 259.47-21.95L259.47-21.95 259.47-24.8Q259.47-25.3 259.82-25.65 260.17-26 260.67-26L260.67-26 264.72-26 264.72-28.05Q264.72-31.05 265.82-33.02 266.92-35 269.07-36 271.22-37 274.52-37L274.52-37 277.92-37Q278.47-37 278.8-36.65 279.12-36.3 279.12-35.8L279.12-35.8 279.12-32.95Q279.12-32.4 278.8-32.05 278.47-31.7 277.92-31.7L277.92-31.7 274.72-31.7Q272.72-31.7 271.97-30.7 271.22-29.7 271.22-27.8L271.22-27.8 271.22-26 277.42-26Q277.97-26 278.3-25.65 278.62-25.3 278.62-24.8L278.62-24.8 278.62-21.95Q278.62-21.4 278.3-21.05 277.97-20.7 277.42-20.7L277.42-20.7 271.22-20.7 271.22-1.2Q271.22-0.7 270.87-0.35 270.52 0 270.02 0L270.02 0ZM287.97 0L283.82 0Q283.32 0 282.97-0.35 282.62-0.7 282.62-1.2L282.62-1.2 282.62-24.8Q282.62-25.3 282.97-25.65 283.32-26 283.82-26L283.82-26 287.97-26Q288.52-26 288.85-25.65 289.17-25.3 289.17-24.8L289.17-24.8 289.17-1.2Q289.17-0.7 288.85-0.35 288.52 0 287.97 0L287.97 0ZM288.17-30.3L283.62-30.3Q283.12-30.3 282.77-30.65 282.42-31 282.42-31.5L282.42-31.5 282.42-35.1Q282.42-35.6 282.77-35.95 283.12-36.3 283.62-36.3L283.62-36.3 288.17-36.3Q288.72-36.3 289.07-35.95 289.42-35.6 289.42-35.1L289.42-35.1 289.42-31.5Q289.42-31 289.07-30.65 288.72-30.3 288.17-30.3L288.17-30.3ZM307.07 0.5L307.07 0.5Q303.47 0.5 300.74-0.85 298.02-2.2 296.49-4.78 294.97-7.35 294.82-11L294.82-11Q294.77-11.75 294.77-12.98 294.77-14.2 294.82-15L294.82-15Q294.97-18.65 296.49-21.23 298.02-23.8 300.74-25.15 303.47-26.5 307.07-26.5L307.07-26.5Q310.27-26.5 312.52-25.63 314.77-24.75 316.22-23.38 317.67-22 318.39-20.53 319.12-19.05 319.17-17.85L319.17-17.85Q319.22-17.3 318.84-16.98 318.47-16.65 317.97-16.65L317.97-16.65 313.57-16.65Q313.07-16.65 312.79-16.9 312.52-17.15 312.27-17.65L312.27-17.65Q311.52-19.65 310.29-20.48 309.07-21.3 307.17-21.3L307.17-21.3Q304.67-21.3 303.19-19.73 301.72-18.15 301.62-14.75L301.62-14.75Q301.52-12.85 301.62-11.25L301.62-11.25Q301.72-7.8 303.19-6.25 304.67-4.7 307.17-4.7L307.17-4.7Q309.12-4.7 310.32-5.53 311.52-6.35 312.27-8.35L312.27-8.35Q312.52-8.85 312.79-9.1 313.07-9.35 313.57-9.35L313.57-9.35 317.97-9.35Q318.47-9.35 318.84-9.03 319.22-8.7 319.17-8.15L319.17-8.15Q319.12-7.25 318.69-6.13 318.27-5 317.34-3.83 316.42-2.65 315.02-1.68 313.62-0.7 311.64-0.1 309.67 0.5 307.07 0.5ZM329.72 0L325.57 0Q325.07 0 324.72-0.35 324.37-0.7 324.37-1.2L324.37-1.2 324.37-24.8Q324.37-25.3 324.72-25.65 325.07-26 325.57-26L325.57-26 329.72-26Q330.27-26 330.59-25.65 330.92-25.3 330.92-24.8L330.92-24.8 330.92-1.2Q330.92-0.7 330.59-0.35 330.27 0 329.72 0L329.72 0ZM329.92-30.3L325.37-30.3Q324.87-30.3 324.52-30.65 324.17-31 324.17-31.5L324.17-31.5 324.17-35.1Q324.17-35.6 324.52-35.95 324.87-36.3 325.37-36.3L325.37-36.3 329.92-36.3Q330.47-36.3 330.82-35.95 331.17-35.6 331.17-35.1L331.17-35.1 331.17-31.5Q331.17-31 330.82-30.65 330.47-30.3 329.92-30.3L329.92-30.3ZM348.76 0.5L348.76 0.5Q343.21 0.5 339.96-2.7 336.71-5.9 336.46-11.8L336.46-11.8Q336.41-12.3 336.41-13.08 336.41-13.85 336.46-14.3L336.46-14.3Q336.66-18.1 338.19-20.83 339.71-23.55 342.41-25.03 345.11-26.5 348.76-26.5L348.76-26.5Q352.81-26.5 355.56-24.83 358.31-23.15 359.71-20.18 361.11-17.2 361.11-13.3L361.11-13.3 361.11-12.25Q361.11-11.75 360.76-11.4 360.41-11.05 359.86-11.05L359.86-11.05 343.26-11.05Q343.26-11.05 343.26-10.9 343.26-10.75 343.26-10.65L343.26-10.65Q343.31-8.9 343.94-7.43 344.56-5.95 345.79-5.05 347.01-4.15 348.71-4.15L348.71-4.15Q350.11-4.15 351.06-4.58 352.01-5 352.61-5.55 353.21-6.1 353.46-6.45L353.46-6.45Q353.91-7.05 354.19-7.18 354.46-7.3 355.01-7.3L355.01-7.3 359.31-7.3Q359.81-7.3 360.14-7 360.46-6.7 360.41-6.25L360.41-6.25Q360.36-5.45 359.59-4.3 358.81-3.15 357.36-2.05 355.91-0.95 353.74-0.23 351.56 0.5 348.76 0.5ZM343.26-15.4L343.26-15.25 354.31-15.25 354.31-15.4Q354.31-17.35 353.66-18.82 353.01-20.3 351.76-21.13 350.51-21.95 348.76-21.95L348.76-21.95Q347.01-21.95 345.76-21.13 344.51-20.3 343.89-18.82 343.26-17.35 343.26-15.4L343.26-15.4ZM372.01 0L367.61 0Q367.11 0 366.76-0.35 366.41-0.7 366.41-1.2L366.41-1.2 366.41-24.8Q366.41-25.3 366.76-25.65 367.11-26 367.61-26L367.61-26 371.71-26Q372.21-26 372.56-25.65 372.91-25.3 372.91-24.8L372.91-24.8 372.91-22.75Q374.21-24.35 376.24-25.43 378.26-26.5 381.26-26.5L381.26-26.5Q384.31-26.5 386.56-25.13 388.81-23.75 390.04-21.25 391.26-18.75 391.26-15.25L391.26-15.25 391.26-1.2Q391.26-0.7 390.91-0.35 390.56 0 390.06 0L390.06 0 385.66 0Q385.16 0 384.81-0.35 384.46-0.7 384.46-1.2L384.46-1.2 384.46-14.95Q384.46-17.85 383.04-19.5 381.61-21.15 378.91-21.15L378.91-21.15Q376.31-21.15 374.76-19.5 373.21-17.85 373.21-14.95L373.21-14.95 373.21-1.2Q373.21-0.7 372.86-0.35 372.51 0 372.01 0L372.01 0ZM413.41 0L409.36 0Q406.36 0 404.31-1.05 402.26-2.1 401.26-4.17 400.26-6.25 400.26-9.35L400.26-9.35 400.26-20.7 396.31-20.7Q395.81-20.7 395.46-21.05 395.11-21.4 395.11-21.95L395.11-21.95 395.11-24.8Q395.11-25.3 395.46-25.65 395.81-26 396.31-26L396.31-26 400.26-26 400.26-34.3Q400.26-34.8 400.58-35.15 400.91-35.5 401.46-35.5L401.46-35.5 405.51-35.5Q406.01-35.5 406.36-35.15 406.71-34.8 406.71-34.3L406.71-34.3 406.71-26 412.96-26Q413.46-26 413.81-25.65 414.16-25.3 414.16-24.8L414.16-24.8 414.16-21.95Q414.16-21.4 413.81-21.05 413.46-20.7 412.96-20.7L412.96-20.7 406.71-20.7 406.71-9.85Q406.71-7.8 407.43-6.65 408.16-5.5 409.96-5.5L409.96-5.5 413.41-5.5Q413.91-5.5 414.26-5.15 414.61-4.8 414.61-4.3L414.61-4.3 414.61-1.2Q414.61-0.7 414.26-0.35 413.91 0 413.41 0L413.41 0ZM421.31 3.75L418.76 3.75Q418.31 3.75 418.06 3.45 417.81 3.15 417.86 2.7L417.86 2.7 419.21-5.8Q419.31-6.45 419.68-6.93 420.06-7.4 420.81-7.4L420.81-7.4 425.41-7.4Q425.81-7.4 426.06-7.13 426.31-6.85 426.31-6.45L426.31-6.45Q426.31-6.1 426.16-5.8L426.16-5.8 422.96 2.5Q422.76 3 422.38 3.38 422.01 3.75 421.31 3.75L421.31 3.75ZM458.1 0.5L458.1 0.5Q455.2 0.5 453.28-0.5 451.35-1.5 450.1-3.05L450.1-3.05 450.1-1.2Q450.1-0.7 449.78-0.35 449.45 0 448.9 0L448.9 0 444.95 0Q444.45 0 444.1-0.35 443.75-0.7 443.75-1.2L443.75-1.2 443.75-34.3Q443.75-34.8 444.1-35.15 444.45-35.5 444.95-35.5L444.95-35.5 449.2-35.5Q449.75-35.5 450.08-35.15 450.4-34.8 450.4-34.3L450.4-34.3 450.4-23.2Q451.65-24.65 453.53-25.58 455.4-26.5 458.1-26.5L458.1-26.5Q460.75-26.5 462.7-25.6 464.65-24.7 465.98-23.08 467.3-21.45 468-19.3 468.7-17.15 468.75-14.65L468.75-14.65Q468.8-13.75 468.8-13.03 468.8-12.3 468.75-11.4L468.75-11.4Q468.65-8.8 467.95-6.63 467.25-4.45 465.95-2.85 464.65-1.25 462.7-0.38 460.75 0.5 458.1 0.5ZM456.25-4.85L456.25-4.85Q458.4-4.85 459.6-5.78 460.8-6.7 461.35-8.2 461.9-9.7 462-11.5L462-11.5Q462.05-13 462-14.5L462-14.5Q461.9-16.3 461.35-17.8 460.8-19.3 459.6-20.23 458.4-21.15 456.25-21.15L456.25-21.15Q454.25-21.15 453-20.25 451.75-19.35 451.1-17.98 450.45-16.6 450.4-15.1L450.4-15.1Q450.35-14.2 450.35-13.18 450.35-12.15 450.4-11.25L450.4-11.25Q450.5-9.7 451.08-8.22 451.65-6.75 452.93-5.8 454.2-4.85 456.25-4.85ZM485.55 0.5L485.55 0.5Q480 0.5 476.75-2.7 473.5-5.9 473.25-11.8L473.25-11.8Q473.2-12.3 473.2-13.08 473.2-13.85 473.25-14.3L473.25-14.3Q473.45-18.1 474.97-20.83 476.5-23.55 479.2-25.03 481.9-26.5 485.55-26.5L485.55-26.5Q489.6-26.5 492.35-24.83 495.1-23.15 496.5-20.18 497.9-17.2 497.9-13.3L497.9-13.3 497.9-12.25Q497.9-11.75 497.55-11.4 497.2-11.05 496.65-11.05L496.65-11.05 480.05-11.05Q480.05-11.05 480.05-10.9 480.05-10.75 480.05-10.65L480.05-10.65Q480.1-8.9 480.72-7.43 481.35-5.95 482.57-5.05 483.8-4.15 485.5-4.15L485.5-4.15Q486.9-4.15 487.85-4.58 488.8-5 489.4-5.55 490-6.1 490.25-6.45L490.25-6.45Q490.7-7.05 490.97-7.18 491.25-7.3 491.8-7.3L491.8-7.3 496.1-7.3Q496.6-7.3 496.92-7 497.25-6.7 497.2-6.25L497.2-6.25Q497.15-5.45 496.37-4.3 495.6-3.15 494.15-2.05 492.7-0.95 490.52-0.23 488.35 0.5 485.55 0.5ZM480.05-15.4L480.05-15.25 491.1-15.25 491.1-15.4Q491.1-17.35 490.45-18.82 489.8-20.3 488.55-21.13 487.3-21.95 485.55-21.95L485.55-21.95Q483.8-21.95 482.55-21.13 481.3-20.3 480.67-18.82 480.05-17.35 480.05-15.4L480.05-15.4ZM510.75 0.5L510.75 0.5Q508.15 0.5 506.05-0.53 503.95-1.55 502.72-3.28 501.5-5 501.5-7.15L501.5-7.15Q501.5-10.65 504.35-12.73 507.2-14.8 511.8-15.5L511.8-15.5 518.64-16.5 518.64-17.55Q518.64-19.65 517.6-20.8 516.55-21.95 514-21.95L514-21.95Q512.2-21.95 511.07-21.23 509.95-20.5 509.4-19.3L509.4-19.3Q509-18.65 508.25-18.65L508.25-18.65 504.3-18.65Q503.75-18.65 503.47-18.95 503.2-19.25 503.2-19.75L503.2-19.75Q503.25-20.55 503.87-21.7 504.5-22.85 505.77-23.93 507.05-25 509.1-25.75 511.15-26.5 514.05-26.5L514.05-26.5Q517.2-26.5 519.37-25.73 521.55-24.95 522.85-23.65 524.14-22.35 524.75-20.6 525.35-18.85 525.35-16.9L525.35-16.9 525.35-1.2Q525.35-0.7 525-0.35 524.64 0 524.14 0L524.14 0 520.1 0Q519.55 0 519.22-0.35 518.89-0.7 518.89-1.2L518.89-1.2 518.89-3.15Q518.25-2.25 517.14-1.4 516.05-0.55 514.47-0.03 512.89 0.5 510.75 0.5ZM512.45-4.25L512.45-4.25Q514.2-4.25 515.62-5 517.05-5.75 517.87-7.33 518.7-8.9 518.7-11.3L518.7-11.3 518.7-12.35 513.7-11.55Q510.75-11.1 509.3-10.1 507.85-9.1 507.85-7.65L507.85-7.65Q507.85-6.55 508.52-5.78 509.2-5 510.25-4.63 511.3-4.25 512.45-4.25ZM541.39 0.5L541.39 0.5Q538.34 0.5 536.12-0.88 533.89-2.25 532.69-4.78 531.49-7.3 531.49-10.75L531.49-10.75 531.49-24.8Q531.49-25.3 531.84-25.65 532.19-26 532.69-26L532.69-26 537.09-26Q537.64-26 537.97-25.65 538.29-25.3 538.29-24.8L538.29-24.8 538.29-11.05Q538.29-4.85 543.74-4.85L543.74-4.85Q546.34-4.85 547.87-6.5 549.39-8.15 549.39-11.05L549.39-11.05 549.39-24.8Q549.39-25.3 549.74-25.65 550.09-26 550.59-26L550.59-26 554.99-26Q555.49-26 555.84-25.65 556.19-25.3 556.19-24.8L556.19-24.8 556.19-1.2Q556.19-0.7 555.84-0.35 555.49 0 554.99 0L554.99 0 550.94 0Q550.39 0 550.07-0.35 549.74-0.7 549.74-1.2L549.74-1.2 549.74-3.25Q548.39-1.5 546.39-0.5 544.39 0.5 541.39 0.5ZM578.59 0L574.54 0Q571.54 0 569.49-1.05 567.44-2.1 566.44-4.17 565.44-6.25 565.44-9.35L565.44-9.35 565.44-20.7 561.49-20.7Q560.99-20.7 560.64-21.05 560.29-21.4 560.29-21.95L560.29-21.95 560.29-24.8Q560.29-25.3 560.64-25.65 560.99-26 561.49-26L561.49-26 565.44-26 565.44-34.3Q565.44-34.8 565.76-35.15 566.09-35.5 566.64-35.5L566.64-35.5 570.69-35.5Q571.19-35.5 571.54-35.15 571.89-34.8 571.89-34.3L571.89-34.3 571.89-26 578.14-26Q578.64-26 578.99-25.65 579.34-25.3 579.34-24.8L579.34-24.8 579.34-21.95Q579.34-21.4 578.99-21.05 578.64-20.7 578.14-20.7L578.14-20.7 571.89-20.7 571.89-9.85Q571.89-7.8 572.61-6.65 573.34-5.5 575.14-5.5L575.14-5.5 578.59-5.5Q579.09-5.5 579.44-5.15 579.79-4.8 579.79-4.3L579.79-4.3 579.79-1.2Q579.79-0.7 579.44-0.35 579.09 0 578.59 0L578.59 0ZM589.59 0L585.44 0Q584.94 0 584.59-0.35 584.24-0.7 584.24-1.2L584.24-1.2 584.24-24.8Q584.24-25.3 584.59-25.65 584.94-26 585.44-26L585.44-26 589.59-26Q590.14-26 590.46-25.65 590.79-25.3 590.79-24.8L590.79-24.8 590.79-1.2Q590.79-0.7 590.46-0.35 590.14 0 589.59 0L589.59 0ZM589.79-30.3L585.24-30.3Q584.74-30.3 584.39-30.65 584.04-31 584.04-31.5L584.04-31.5 584.04-35.1Q584.04-35.6 584.39-35.95 584.74-36.3 585.24-36.3L585.24-36.3 589.79-36.3Q590.34-36.3 590.69-35.95 591.04-35.6 591.04-35.1L591.04-35.1 591.04-31.5Q591.04-31 590.69-30.65 590.34-30.3 589.79-30.3L589.79-30.3ZM605.53 0L601.43 0Q600.93 0 600.58-0.35 600.23-0.7 600.23-1.2L600.23-1.2 600.23-20.7 596.18-20.7Q595.68-20.7 595.33-21.05 594.98-21.4 594.98-21.95L594.98-21.95 594.98-24.8Q594.98-25.3 595.33-25.65 595.68-26 596.18-26L596.18-26 600.23-26 600.23-28.05Q600.23-31.05 601.33-33.02 602.43-35 604.58-36 606.73-37 610.03-37L610.03-37 613.43-37Q613.98-37 614.31-36.65 614.63-36.3 614.63-35.8L614.63-35.8 614.63-32.95Q614.63-32.4 614.31-32.05 613.98-31.7 613.43-31.7L613.43-31.7 610.23-31.7Q608.23-31.7 607.48-30.7 606.73-29.7 606.73-27.8L606.73-27.8 606.73-26 612.93-26Q613.48-26 613.81-25.65 614.13-25.3 614.13-24.8L614.13-24.8 614.13-21.95Q614.13-21.4 613.81-21.05 613.48-20.7 612.93-20.7L612.93-20.7 606.73-20.7 606.73-1.2Q606.73-0.7 606.38-0.35 606.03 0 605.53 0L605.53 0ZM627.78 0.5L627.78 0.5Q624.73 0.5 622.51-0.88 620.28-2.25 619.08-4.78 617.88-7.3 617.88-10.75L617.88-10.75 617.88-24.8Q617.88-25.3 618.23-25.65 618.58-26 619.08-26L619.08-26 623.48-26Q624.03-26 624.36-25.65 624.68-25.3 624.68-24.8L624.68-24.8 624.68-11.05Q624.68-4.85 630.13-4.85L630.13-4.85Q632.73-4.85 634.26-6.5 635.78-8.15 635.78-11.05L635.78-11.05 635.78-24.8Q635.78-25.3 636.13-25.65 636.48-26 636.98-26L636.98-26 641.38-26Q641.88-26 642.23-25.65 642.58-25.3 642.58-24.8L642.58-24.8 642.58-1.2Q642.58-0.7 642.23-0.35 641.88 0 641.38 0L641.38 0 637.33 0Q636.78 0 636.46-0.35 636.13-0.7 636.13-1.2L636.13-1.2 636.13-3.25Q634.78-1.5 632.78-0.5 630.78 0.5 627.78 0.5ZM654.58 0L650.43 0Q649.93 0 649.58-0.35 649.23-0.7 649.23-1.2L649.23-1.2 649.23-34.3Q649.23-34.8 649.58-35.15 649.93-35.5 650.43-35.5L650.43-35.5 654.58-35.5Q655.08-35.5 655.43-35.15 655.78-34.8 655.78-34.3L655.78-34.3 655.78-1.2Q655.78-0.7 655.43-0.35 655.08 0 654.58 0L654.58 0ZM684.17 0L680.97 0Q680.27 0 679.92-0.35 679.57-0.7 679.32-1.25L679.32-1.25 672.17-24.45Q672.12-24.7 672.12-24.9L672.12-24.9Q672.12-25.35 672.45-25.68 672.77-26 673.17-26L673.17-26 676.87-26Q677.47-26 677.82-25.68 678.17-25.35 678.22-25.05L678.22-25.05 683.12-8.5 688.32-24.9Q688.42-25.25 688.77-25.63 689.12-26 689.82-26L689.82-26 692.32-26Q693.02-26 693.37-25.63 693.72-25.25 693.82-24.9L693.82-24.9 699.02-8.5 703.92-25.05Q703.97-25.35 704.3-25.68 704.62-26 705.22-26L705.22-26 708.92-26Q709.37-26 709.7-25.68 710.02-25.35 710.02-24.9L710.02-24.9Q710.02-24.7 709.92-24.45L709.92-24.45 702.77-1.25Q702.62-0.7 702.25-0.35 701.87 0 701.17 0L701.17 0 697.92 0Q697.27 0 696.85-0.35 696.42-0.7 696.27-1.25L696.27-1.25 691.07-17.05 685.87-1.25Q685.67-0.7 685.3-0.35 684.92 0 684.17 0L684.17 0ZM726.07 0.5L726.07 0.5Q720.52 0.5 717.27-2.7 714.02-5.9 713.77-11.8L713.77-11.8Q713.72-12.3 713.72-13.08 713.72-13.85 713.77-14.3L713.77-14.3Q713.97-18.1 715.5-20.83 717.02-23.55 719.72-25.03 722.42-26.5 726.07-26.5L726.07-26.5Q730.12-26.5 732.87-24.83 735.62-23.15 737.02-20.18 738.42-17.2 738.42-13.3L738.42-13.3 738.42-12.25Q738.42-11.75 738.07-11.4 737.72-11.05 737.17-11.05L737.17-11.05 720.57-11.05Q720.57-11.05 720.57-10.9 720.57-10.75 720.57-10.65L720.57-10.65Q720.62-8.9 721.25-7.43 721.87-5.95 723.1-5.05 724.32-4.15 726.02-4.15L726.02-4.15Q727.42-4.15 728.37-4.58 729.32-5 729.92-5.55 730.52-6.1 730.77-6.45L730.77-6.45Q731.22-7.05 731.5-7.18 731.77-7.3 732.32-7.3L732.32-7.3 736.62-7.3Q737.12-7.3 737.45-7 737.77-6.7 737.72-6.25L737.72-6.25Q737.67-5.45 736.9-4.3 736.12-3.15 734.67-2.05 733.22-0.95 731.05-0.23 728.87 0.5 726.07 0.5ZM720.57-15.4L720.57-15.25 731.62-15.25 731.62-15.4Q731.62-17.35 730.97-18.82 730.32-20.3 729.07-21.13 727.82-21.95 726.07-21.95L726.07-21.95Q724.32-21.95 723.07-21.13 721.82-20.3 721.2-18.82 720.57-17.35 720.57-15.4L720.57-15.4ZM758.12 0.5L758.12 0.5Q755.22 0.5 753.29-0.5 751.37-1.5 750.12-3.05L750.12-3.05 750.12-1.2Q750.12-0.7 749.79-0.35 749.47 0 748.92 0L748.92 0 744.97 0Q744.47 0 744.12-0.35 743.77-0.7 743.77-1.2L743.77-1.2 743.77-34.3Q743.77-34.8 744.12-35.15 744.47-35.5 744.97-35.5L744.97-35.5 749.22-35.5Q749.77-35.5 750.09-35.15 750.42-34.8 750.42-34.3L750.42-34.3 750.42-23.2Q751.67-24.65 753.54-25.58 755.42-26.5 758.12-26.5L758.12-26.5Q760.77-26.5 762.72-25.6 764.67-24.7 765.99-23.08 767.32-21.45 768.02-19.3 768.72-17.15 768.77-14.65L768.77-14.65Q768.82-13.75 768.82-13.03 768.82-12.3 768.77-11.4L768.77-11.4Q768.67-8.8 767.97-6.63 767.27-4.45 765.97-2.85 764.67-1.25 762.72-0.38 760.77 0.5 758.12 0.5ZM756.27-4.85L756.27-4.85Q758.42-4.85 759.62-5.78 760.82-6.7 761.37-8.2 761.92-9.7 762.02-11.5L762.02-11.5Q762.07-13 762.02-14.5L762.02-14.5Q761.92-16.3 761.37-17.8 760.82-19.3 759.62-20.23 758.42-21.15 756.27-21.15L756.27-21.15Q754.27-21.15 753.02-20.25 751.77-19.35 751.12-17.98 750.47-16.6 750.42-15.1L750.42-15.1Q750.37-14.2 750.37-13.18 750.37-12.15 750.42-11.25L750.42-11.25Q750.52-9.7 751.09-8.22 751.67-6.75 752.94-5.8 754.22-4.85 756.27-4.85ZM784.22 0.5L784.22 0.5Q781.22 0.5 779.09-0.2 776.97-0.9 775.62-1.95 774.27-3 773.62-4.05 772.97-5.1 772.92-5.8L772.92-5.8Q772.87-6.35 773.24-6.68 773.62-7 774.07-7L774.07-7 778.02-7Q778.22-7 778.37-6.95 778.52-6.9 778.77-6.65L778.77-6.65Q779.42-6.1 780.14-5.5 780.87-4.9 781.87-4.48 782.87-4.05 784.37-4.05L784.37-4.05Q786.32-4.05 787.64-4.83 788.97-5.6 788.97-7.05L788.97-7.05Q788.97-8.1 788.39-8.75 787.82-9.4 786.27-9.93 784.72-10.45 781.87-11.05L781.87-11.05Q779.07-11.7 777.22-12.7 775.37-13.7 774.47-15.2 773.57-16.7 773.57-18.7L773.57-18.7Q773.57-20.65 774.74-22.43 775.92-24.2 778.24-25.35 780.57-26.5 784.02-26.5L784.02-26.5Q786.72-26.5 788.72-25.83 790.72-25.15 792.04-24.15 793.37-23.15 794.07-22.13 794.77-21.1 794.82-20.35L794.82-20.35Q794.87-19.8 794.52-19.48 794.17-19.15 793.72-19.15L793.72-19.15 790.02-19.15Q789.77-19.15 789.57-19.25 789.37-19.35 789.17-19.5L789.17-19.5Q788.62-20 787.97-20.58 787.32-21.15 786.39-21.55 785.47-21.95 783.97-21.95L783.97-21.95Q782.07-21.95 781.07-21.13 780.07-20.3 780.07-19.05L780.07-19.05Q780.07-18.2 780.54-17.57 781.02-16.95 782.47-16.4 783.92-15.85 786.87-15.25L786.87-15.25Q790.22-14.65 792.19-13.48 794.17-12.3 794.99-10.78 795.82-9.25 795.82-7.4L795.82-7.4Q795.82-5.15 794.49-3.35 793.17-1.55 790.59-0.53 788.02 0.5 784.22 0.5ZM806.31 0L802.16 0Q801.66 0 801.31-0.35 800.96-0.7 800.96-1.2L800.96-1.2 800.96-24.8Q800.96-25.3 801.31-25.65 801.66-26 802.16-26L802.16-26 806.31-26Q806.86-26 807.19-25.65 807.51-25.3 807.51-24.8L807.51-24.8 807.51-1.2Q807.51-0.7 807.19-0.35 806.86 0 806.31 0L806.31 0ZM806.51-30.3L801.96-30.3Q801.46-30.3 801.11-30.65 800.76-31 800.76-31.5L800.76-31.5 800.76-35.1Q800.76-35.6 801.11-35.95 801.46-36.3 801.96-36.3L801.96-36.3 806.51-36.3Q807.06-36.3 807.41-35.95 807.76-35.6 807.76-35.1L807.76-35.1 807.76-31.5Q807.76-31 807.41-30.65 807.06-30.3 806.51-30.3L806.51-30.3ZM829.96 0L825.91 0Q822.91 0 820.86-1.05 818.81-2.1 817.81-4.17 816.81-6.25 816.81-9.35L816.81-9.35 816.81-20.7 812.86-20.7Q812.36-20.7 812.01-21.05 811.66-21.4 811.66-21.95L811.66-21.95 811.66-24.8Q811.66-25.3 812.01-25.65 812.36-26 812.86-26L812.86-26 816.81-26 816.81-34.3Q816.81-34.8 817.14-35.15 817.46-35.5 818.01-35.5L818.01-35.5 822.06-35.5Q822.56-35.5 822.91-35.15 823.26-34.8 823.26-34.3L823.26-34.3 823.26-26 829.51-26Q830.01-26 830.36-25.65 830.71-25.3 830.71-24.8L830.71-24.8 830.71-21.95Q830.71-21.4 830.36-21.05 830.01-20.7 829.51-20.7L829.51-20.7 823.26-20.7 823.26-9.85Q823.26-7.8 823.99-6.65 824.71-5.5 826.51-5.5L826.51-5.5 829.96-5.5Q830.46-5.5 830.81-5.15 831.16-4.8 831.16-4.3L831.16-4.3 831.16-1.2Q831.16-0.7 830.81-0.35 830.46 0 829.96 0L829.96 0ZM846.81 0.5L846.81 0.5Q841.26 0.5 838.01-2.7 834.76-5.9 834.51-11.8L834.51-11.8Q834.46-12.3 834.46-13.08 834.46-13.85 834.51-14.3L834.51-14.3Q834.71-18.1 836.23-20.83 837.76-23.55 840.46-25.03 843.16-26.5 846.81-26.5L846.81-26.5Q850.86-26.5 853.61-24.83 856.36-23.15 857.76-20.18 859.16-17.2 859.16-13.3L859.16-13.3 859.16-12.25Q859.16-11.75 858.81-11.4 858.46-11.05 857.91-11.05L857.91-11.05 841.31-11.05Q841.31-11.05 841.31-10.9 841.31-10.75 841.31-10.65L841.31-10.65Q841.36-8.9 841.98-7.43 842.61-5.95 843.83-5.05 845.06-4.15 846.76-4.15L846.76-4.15Q848.16-4.15 849.11-4.58 850.06-5 850.66-5.55 851.26-6.1 851.51-6.45L851.51-6.45Q851.96-7.05 852.23-7.18 852.51-7.3 853.06-7.3L853.06-7.3 857.36-7.3Q857.86-7.3 858.18-7 858.51-6.7 858.46-6.25L858.46-6.25Q858.41-5.45 857.63-4.3 856.86-3.15 855.41-2.05 853.96-0.95 851.78-0.23 849.61 0.5 846.81 0.5ZM841.31-15.4L841.31-15.25 852.36-15.25 852.36-15.4Q852.36-17.35 851.71-18.82 851.06-20.3 849.81-21.13 848.56-21.95 846.81-21.95L846.81-21.95Q845.06-21.95 843.81-21.13 842.56-20.3 841.93-18.82 841.31-17.35 841.31-15.4L841.31-15.4ZM874.31 0.5L874.31 0.5Q871.31 0.5 869.18-0.2 867.06-0.9 865.71-1.95 864.36-3 863.71-4.05 863.06-5.1 863.01-5.8L863.01-5.8Q862.96-6.35 863.33-6.68 863.71-7 864.16-7L864.16-7 868.11-7Q868.31-7 868.46-6.95 868.61-6.9 868.86-6.65L868.86-6.65Q869.51-6.1 870.23-5.5 870.96-4.9 871.96-4.48 872.96-4.05 874.46-4.05L874.46-4.05Q876.41-4.05 877.73-4.83 879.06-5.6 879.06-7.05L879.06-7.05Q879.06-8.1 878.48-8.75 877.91-9.4 876.36-9.93 874.81-10.45 871.96-11.05L871.96-11.05Q869.16-11.7 867.31-12.7 865.46-13.7 864.56-15.2 863.66-16.7 863.66-18.7L863.66-18.7Q863.66-20.65 864.83-22.43 866.01-24.2 868.33-25.35 870.66-26.5 874.11-26.5L874.11-26.5Q876.81-26.5 878.81-25.83 880.81-25.15 882.13-24.15 883.46-23.15 884.16-22.13 884.86-21.1 884.91-20.35L884.91-20.35Q884.96-19.8 884.61-19.48 884.26-19.15 883.81-19.15L883.81-19.15 880.11-19.15Q879.86-19.15 879.66-19.25 879.46-19.35 879.26-19.5L879.26-19.5Q878.71-20 878.06-20.58 877.41-21.15 876.48-21.55 875.56-21.95 874.06-21.95L874.06-21.95Q872.16-21.95 871.16-21.13 870.16-20.3 870.16-19.05L870.16-19.05Q870.16-18.2 870.63-17.57 871.11-16.95 872.56-16.4 874.01-15.85 876.96-15.25L876.96-15.25Q880.31-14.65 882.28-13.48 884.26-12.3 885.08-10.78 885.91-9.25 885.91-7.4L885.91-7.4Q885.91-5.15 884.58-3.35 883.26-1.55 880.68-0.53 878.11 0.5 874.31 0.5Z" opacity="1" transform="matrix(1,0,0,1,0,0)" fill="#31c48d" class="undefined-text-1" data-fill-palette-color="secondary" id="text-1"></path></svg></g></svg></g></svg></g></svg></g><g transform="matrix(1,0,0,1,31.361264595389045,0)"><svg viewBox="0 0 101.47257340288186 73.25912106687817" height="73.25912106687817" width="101.47257340288186"><g><svg xmlns="http://www.w3.org/2000/svg" xmlns:xlink="http://www.w3.org/1999/xlink" xmlns:a="http://ns.adobe.com/AdobeSVGViewerExtensions/3.0/" version="1.1" x="0" y="0" viewBox="0 0 83.6209945678711 60.37099838256836" enable-background="new -8.178 -25.629 100 100" xml:space="preserve" height="73.25912106687817" width="101.47257340288186" class="icon-icon-0" data-fill-palette-color="accent" id="icon-0"><path d="M0 0v47.083h10.448V0H0zM9.365 44.811H1.082V2.272h8.283V44.811z" fill="#4d7e3e" data-fill-palette-color="accent"></path><path d="M12.26 0v47.082h10.448V0H12.26zM21.625 44.811h-8.283V2.272h8.283V44.811z" fill="#4d7e3e" data-fill-palette-color="accent"></path><path d="M24.325 0v47.083h10.448V0H24.325zM33.69 44.811h-8.283V2.272h8.283V44.811z" fill="#4d7e3e" data-fill-palette-color="accent"></path><path d="M36.587 0v47.083h10.447V0H36.587zM45.952 44.811h-8.283V2.272h8.283V44.811z" fill="#4d7e3e" data-fill-palette-color="accent"></path><path d="M48.847 0v47.083h10.448V0H48.847zM58.212 44.811h-8.283V2.272h8.283V44.811z" fill="#4d7e3e" data-fill-palette-color="accent"></path><path d="M60.912 0v47.083H71.36V0H60.912zM70.277 44.811h-8.283V2.272h8.283V44.811z" fill="#4d7e3e" data-fill-palette-color="accent"></path><path d="M73.173 0v47.083h10.448V0H73.173zM82.538 44.811h-8.283V2.272h8.283V44.811z" fill="#4d7e3e" data-fill-palette-color="accent"></path><rect x="8.32" y="0" width="6.5" height="28.038" fill="#4d7e3e" data-fill-palette-color="accent"></rect><rect x="20.364" y="0" width="6.5" height="28.038" fill="#4d7e3e" data-fill-palette-color="accent"></rect><rect x="44.365" y="0.001" width="6.5" height="28.038" fill="#4d7e3e" data-fill-palette-color="accent"></rect><rect x="56.95" y="0" width="6.5" height="28.039" fill="#4d7e3e" data-fill-palette-color="accent"></rect><rect x="69.017" y="0.001" width="6.5" height="28.038" fill="#4d7e3e" data-fill-palette-color="accent"></rect><rect y="49.371" width="9.654" height="11" fill="#4d7e3e" data-fill-palette-color="accent"></rect><rect x="24.722" y="49.371" width="9.654" height="11" fill="#4d7e3e" data-fill-palette-color="accent"></rect><rect x="49.243" y="49.371" width="9.654" height="11" fill="#4d7e3e" data-fill-palette-color="accent"></rect></svg></g></svg></g><g></g></svg></g></svg></g></svg></g></svg></g><defs></defs></svg><rect width="320" height="360" fill="none" stroke="none" visibility="hidden"></rect></g></svg></g></svg>